<?xml version="1.0" encoding="iso-8859-1"?>
<!-- Uploaded to: SVG Repo, www.svgrepo.com, Generator: SVG Repo Mixer Tools -->
<svg fill="#000000" height="800px" width="800px" version="1.1" id="Capa_1"
	xmlns="http://www.w3.org/2000/svg"
	xmlns:xlink="http://www.w3.org/1999/xlink" viewBox="0 0 196.399 196.399" xml:space="preserve">
	<path d="M98.468,187.382c-25.841,0-50.183-9.96-68.63-28.103c-18.645-18.338-29.033-42.839-29.25-68.99L0,19.628
	c-0.004-0.53,0.202-1.041,0.575-1.42l1.245-1.265c3.765-3.828,8.796-5.961,14.166-6.006c0.057,0,0.115-0.001,0.172-0.001
	c5.306,0,10.305,2.046,14.093,5.771l0.174,0.171c3.069,3.019,7.115,4.633,11.429,4.624c4.301-0.036,8.332-1.744,11.348-4.812
	c7.773-7.904,20.527-8.01,28.432-0.236l1.101,1.083c6.332,6.227,16.548,6.141,22.774-0.189l1.411-1.436
	c7.774-7.903,20.528-8.01,28.432-0.236l2.464,2.424c3.067,3.017,7.093,4.631,11.427,4.622c4.301-0.036,8.332-1.744,11.348-4.812
	l2.848-2.896c7.773-7.904,20.527-8.01,28.431-0.236l3.353,3.298c0.378,0.372,0.593,0.879,0.598,1.409l0.575,69.176
	c0.217,26.151-9.762,50.821-28.1,69.467c-18.338,18.645-42.839,29.033-68.991,29.25C99.027,187.381,98.745,187.382,98.468,187.382z
	 M4.007,20.424l0.581,69.832c0.208,25.082,10.172,48.583,28.055,66.171c17.884,17.589,41.513,27.165,66.629,26.952
	c25.083-0.208,48.583-10.172,66.172-28.055c17.589-17.884,27.161-41.546,26.952-66.629l-0.568-68.348l-2.762-2.717
	c-6.332-6.227-16.548-6.142-22.775,0.189l-2.848,2.896c-3.766,3.829-8.796,5.962-14.167,6.007
	c-5.368,0.019-10.436-2.005-14.265-5.771l-2.464-2.424c-6.332-6.228-16.548-6.141-22.775,0.189l-1.411,1.436
	c-7.774,7.904-20.528,8.01-28.432,0.236l-1.101-1.083c-6.331-6.227-16.547-6.142-22.775,0.189
	c-3.766,3.829-8.796,5.962-14.167,6.007c-5.382,0.047-10.436-2.005-14.265-5.771l-0.174-0.171c-3.069-3.02-7.14-4.631-11.429-4.624
	c-4.301,0.036-8.332,1.744-11.348,4.812L4.007,20.424z M125.513,163.147c-0.113,0-0.228-0.01-0.343-0.029
	c-0.161-0.027-3.975-0.713-7.472-3.463c-1.071-0.842-1.951-1.845-2.66-2.844c-14.964-1.103-23.901-9.683-24.281-10.055
	c-0.602-0.588-0.771-1.49-0.423-2.257c0.266-0.585,6.034-12.878,21.46-15.7c0.072-1.001,0.308-2.394,0.96-3.985
	c1.323-3.23,3.655-4.475,3.917-4.606c0.95-0.475,2.101-0.129,2.63,0.79c0.456,0.774,2.083,2.877,4.066,3.207
	c3.191,0.531,6.277,0.595,6.308,0.595c0.791,0.015,1.499,0.494,1.806,1.223c0.058,0.138,0.574,1.382,0.842,2.756
	c0.12,0.616,0.152,1.265,0.147,1.827c3.771,1.354,6.834,3.111,9.208,4.803c0.419-1.679,1.123-3.729,2.29-5.486
	c2.831-4.263,7.354-3.69,7.543-3.666c0.606,0.084,1.141,0.441,1.451,0.969c0.31,0.528,0.361,1.17,0.138,1.74
	c-0.28,0.723-0.993,2.952-0.918,4.54c0.117,2.509,0.128,5.113-1.108,6.972c-0.427,0.643-1.006,1.211-1.588,1.683
	c0.35,0.297,0.698,0.637,1.01,1.019c1.328,1.626,1.554,4.039,1.673,6.371c0.072,1.43,0.913,3.378,1.23,4.007
	c0.275,0.546,0.286,1.189,0.029,1.744s-0.753,0.962-1.348,1.104c-1.606,0.384-4.968,0.239-7.391-2.733
	c-1.28-1.571-2.13-3.478-2.666-5.019c-3.548,2.579-8.598,5.515-14.75,7.106c0.721,2.766,0.266,5.421,0.204,5.756
	C127.297,162.474,126.459,163.147,125.513,163.147z M117.296,152.852c0.611,1.175,1.556,2.621,2.875,3.658
	c1.197,0.941,2.458,1.574,3.486,1.985c-0.042-0.796-0.178-1.694-0.514-2.514c-0.511-1.246-2.323-2.395-4.973-3.15
	C118.006,152.795,117.69,152.804,117.296,152.852z M107.014,151.256c1.744,0.534,3.636,0.979,5.666,1.275
	c-0.14-0.371-0.211-0.601-0.219-0.627c-0.323-1.056,0.271-2.174,1.327-2.497c0.818-0.25,3.627-1.028,5.406-0.522
	c1.916,0.547,4.384,1.532,6.099,3.238c8.917-2.033,15.583-7.435,18.248-9.888c-2.868-2.991-11.098-10.01-25.171-10.01
	c-0.118,0-0.235,0.001-0.353,0.002c-4.602,0.038-8.437,1.001-11.593,2.405c0.961,1.758,2.25,4.725,2.278,8.023
	C108.73,146.137,107.678,149.491,107.014,151.256z M145.384,145.971c0.325,1.234,1.065,3.527,2.406,5.172
	c0.231,0.285,0.475,0.513,0.72,0.696c-0.172-0.677-0.301-1.391-0.337-2.088c-0.054-1.07-0.167-3.298-0.777-4.045
	c-0.24-0.294-0.556-0.561-0.865-0.78C146.21,145.232,145.826,145.584,145.384,145.971z M94.69,144.865
	c1.498,1.192,4.435,3.272,8.564,5.021c0.548-1.451,1.471-4.33,1.447-7.197c-0.02-2.467-1.059-4.801-1.801-6.156
	C98.431,139.404,95.838,142.985,94.69,144.865z M145.185,138.256c0.472,0.438,0.881,0.844,1.229,1.205
	c0.518-0.353,1.057-0.789,1.331-1.2c0.613-0.922,0.498-3.385,0.442-4.568c-0.042-0.904,0.06-1.852,0.22-2.727
	c-0.384,0.278-0.765,0.656-1.106,1.169C145.942,134.179,145.385,136.928,145.185,138.256z M117.983,128.227l0.017,2L117.983,128.227
	c3.837-0.035,7.297,0.412,10.38,1.153c-0.048-0.22-0.105-0.437-0.164-0.639c-1.302-0.073-3.353-0.235-5.489-0.592
	c-2.422-0.402-4.274-1.948-5.443-3.245c-0.283,0.369-0.572,0.839-0.812,1.425c-0.304,0.743-0.477,1.416-0.572,1.973
	C116.566,128.259,117.267,128.233,117.983,128.227z M59.907,149.174c-0.776,0-1.556-0.105-2.324-0.318
	c-2.227-0.616-4.08-2.063-5.217-4.074s-1.425-4.345-0.808-6.571c0.617-2.227,2.064-4.079,4.075-5.217l0,0
	c2.011-1.139,4.343-1.426,6.571-0.809c2.226,0.617,4.079,2.064,5.217,4.075c1.138,2.011,1.425,4.345,0.808,6.571
	s-2.064,4.079-4.075,5.217C62.837,148.794,61.381,149.174,59.907,149.174z M59.887,135.868c-0.792,0-1.575,0.205-2.283,0.605h0
	c-1.081,0.612-1.859,1.608-2.19,2.805c-0.332,1.197-0.177,2.451,0.435,3.532c0.611,1.081,1.607,1.859,2.804,2.19
	c1.197,0.332,2.452,0.178,3.533-0.434c1.081-0.612,1.859-1.608,2.19-2.805c0.332-1.197,0.177-2.451-0.435-3.532
	s-1.608-1.859-2.805-2.191C60.723,135.925,60.304,135.868,59.887,135.868z M100.64,143.936c-1.097,0-1.991-0.885-2-1.984
	c-0.009-1.104,0.88-2.007,1.984-2.016l0.125-0.001c0.005,0,0.011,0,0.016,0c1.097,0,1.991,0.885,2,1.984
	c0.009,1.104-0.88,2.007-1.984,2.016l-0.125,0.001C100.65,143.936,100.645,143.936,100.64,143.936z M72.047,124.719
	c-2.319,0-4.574-1.214-5.795-3.371c-1.804-3.189-0.678-7.252,2.51-9.058c0,0,0,0,0.001,0c3.186-1.806,7.25-0.68,9.057,2.51
	c0.875,1.545,1.095,3.338,0.621,5.049c-0.474,1.711-1.586,3.135-3.131,4.009C74.277,124.441,73.155,124.719,72.047,124.719z
	 M70.733,115.77c-1.27,0.719-1.718,2.337-1,3.606c0.719,1.271,2.337,1.719,3.606,1c0.615-0.349,1.058-0.915,1.246-1.596
	c0.189-0.682,0.101-1.396-0.248-2.011C73.62,115.501,72.002,115.052,70.733,115.77L70.733,115.77z M89.361,107.217
	c-0.114,0-0.229-0.01-0.344-0.029c-0.264-0.046-6.527-1.172-12.306-5.717c-1.943-1.528-3.503-3.384-4.725-5.195
	c-25.845-1.657-41.25-16.441-41.9-17.077c-0.602-0.588-0.771-1.49-0.423-2.257c0.111-0.244,10.367-22.114,37.321-26.583
	c0.004-1.556,0.25-4.329,1.6-7.624c2.129-5.197,5.935-7.152,6.096-7.233c0.947-0.475,2.1-0.129,2.629,0.79
	c0.029,0.05,3.24,5.474,8.087,6.28c5.666,0.943,11.104,1.051,11.159,1.052c0.791,0.015,1.499,0.493,1.807,1.223
	c0.038,0.089,0.929,2.215,1.372,4.492c0.263,1.354,0.253,2.846,0.191,3.911c7.892,2.685,14.016,6.431,18.43,9.825
	c0.579-3.013,1.794-7.521,4.25-11.221c4.408-6.638,11.369-5.758,11.663-5.718c0.606,0.084,1.14,0.441,1.45,0.969
	s0.361,1.169,0.14,1.738c-0.019,0.049-1.864,4.842-1.693,8.482c0.192,4.108,0.221,8.359-1.678,11.214
	c-1.032,1.551-2.662,2.84-4,3.727c0.99,0.652,2.151,1.562,3.082,2.702c2.023,2.479,2.381,6.397,2.574,10.198
	c0.168,3.311,2.269,7.5,2.29,7.542c0.276,0.546,0.287,1.188,0.03,1.744c-0.257,0.555-0.754,0.962-1.349,1.104
	c-0.268,0.064-6.652,1.511-11.34-4.242c-2.671-3.279-4.208-7.466-4.991-10.182c-6.329,4.846-16.074,10.843-28.229,13.678
	c1.808,5.044,0.816,10.532,0.772,10.773C91.146,106.544,90.307,107.217,89.361,107.217z M72.947,89.706
	c0.998,2.292,3.012,6.084,6.237,8.62c3.092,2.433,6.366,3.735,8.424,4.377c0.089-1.846-0.006-4.585-0.998-7.004
	c-1.074-2.622-4.478-4.867-9.585-6.322C76.233,89.148,74.524,89.371,72.947,89.706z M55.32,88.975
	c4.202,1.396,8.93,2.515,14.125,3.068c-0.88-1.872-1.295-3.211-1.321-3.295c-0.323-1.056,0.271-2.174,1.327-2.497
	c0.941-0.289,5.776-1.688,8.545-0.898c3.364,0.961,7.752,2.728,10.489,5.82c17.596-3.748,30.328-14.924,34.209-18.683
	c-4.065-4.473-19.257-18.925-45.744-18.925c-0.203,0-0.402,0.001-0.606,0.003l-0.017-2l0.017,2
	c-8.981,0.074-16.311,2.08-22.21,4.928c1.527,2.481,4.538,8.185,4.591,14.649C58.782,80.149,56.213,86.857,55.32,88.975z
	 M122.197,78.369c0.433,1.86,1.808,6.896,4.678,10.418c1.541,1.892,3.333,2.619,4.757,2.87c-0.666-1.771-1.374-4.112-1.484-6.288
	c-0.152-3.001-0.42-6.331-1.677-7.872c-0.838-1.026-2.013-1.818-2.821-2.288C124.855,75.991,123.695,77.086,122.197,78.369z
	 M33.97,77.301c2.358,1.989,8.467,6.67,17.585,10.301c0.672-1.576,3.222-7.988,3.168-14.422c-0.047-5.674-2.891-10.819-4.124-12.786
	C40.763,66.237,35.685,74.184,33.97,77.301z M121.931,66.052c1.475,1.333,2.626,2.516,3.458,3.429
	c1.185-0.696,2.928-1.896,3.768-3.157c1.229-1.847,1.167-5.517,1.013-8.811c-0.115-2.465,0.458-5.198,1.014-7.204
	c-1.599,0.385-3.653,1.36-5.246,3.758C123.124,58.305,122.181,64.091,121.931,66.052z M76.969,49.566
	c7.109,0,13.436,0.958,18.996,2.472c0.001-0.63-0.036-1.317-0.156-1.937c-0.18-0.922-0.458-1.836-0.693-2.525
	c-2.046-0.091-6.108-0.349-10.375-1.06c-4.62-0.769-7.953-4.223-9.643-6.407c-0.874,0.809-1.99,2.136-2.812,4.141
	c-0.965,2.357-1.231,4.356-1.288,5.589c1.708-0.161,3.48-0.254,5.312-0.27C76.53,49.567,76.751,49.566,76.969,49.566z
	 M48.463,76.055c-2.75,0-4.999-2.226-5.021-4.98c-0.011-1.342,0.501-2.606,1.441-3.563c0.941-0.956,2.198-1.489,3.539-1.5l0.017,2
	l-0.017-2c0.014,0,0.028,0,0.042,0c2.75,0,4.999,2.226,5.021,4.98c0.011,1.341-0.5,2.606-1.441,3.563
	c-0.94,0.956-2.198,1.489-3.539,1.5C48.491,76.055,48.477,76.055,48.463,76.055z M48.463,70.012c-0.003,0-0.006,0-0.008,0
	c-0.273,0.002-0.529,0.11-0.72,0.305c-0.191,0.195-0.296,0.453-0.293,0.726c0.004,0.561,0.462,1.014,1.022,1.014
	c0.003,0,0.006,0,0.008,0c0.273-0.002,0.529-0.11,0.721-0.306c0.191-0.194,0.295-0.451,0.293-0.725
	c-0.002-0.273-0.11-0.529-0.305-0.721C48.987,70.115,48.733,70.012,48.463,70.012z M22.37,68.895c-3.638,0-6.613-2.944-6.644-6.59
	c-0.015-1.775,0.663-3.449,1.908-4.715s2.908-1.971,4.683-1.985l0,0c0.019,0,0.038,0,0.056,0c3.639,0,6.614,2.944,6.645,6.59
	c0.015,1.775-0.663,3.449-1.908,4.715c-1.245,1.267-2.908,1.971-4.683,1.985C22.407,68.895,22.388,68.895,22.37,68.895z
	 M22.349,59.605c-0.707,0.006-1.368,0.286-1.864,0.79s-0.765,1.171-0.759,1.877c0.012,1.451,1.197,2.623,2.646,2.623
	c0.007,0,0.015,0,0.022,0c0.707-0.006,1.369-0.286,1.864-0.79s0.765-1.171,0.759-1.877c-0.012-1.451-1.197-2.623-2.646-2.623
	C22.364,59.605,22.357,59.605,22.349,59.605L22.349,59.605z M163.545,58.054c-2.7,0-5.244-1.041-7.171-2.937
	c-1.949-1.917-3.034-4.477-3.057-7.21c-0.022-2.732,1.021-5.311,2.937-7.26c1.917-1.948,4.477-3.033,7.209-3.056l0,0
	c5.643-0.074,10.269,4.504,10.316,10.146c0.046,5.642-4.505,10.27-10.146,10.316C163.603,58.054,163.574,58.054,163.545,58.054z
	 M163.495,41.592c-1.664,0.014-3.224,0.675-4.391,1.861s-1.802,2.757-1.789,4.421s0.675,3.224,1.862,4.392
	c1.187,1.167,2.779,1.837,4.421,1.788c3.436-0.028,6.208-2.848,6.179-6.283C169.75,44.335,166.931,41.567,163.495,41.592
	L163.495,41.592z M41.456,48.188c-4.664,0-8.478-3.773-8.517-8.445c-0.039-4.696,3.75-8.548,8.446-8.588
	c-0.017-0.028,0.046-0.001,0.071,0c4.664,0,8.478,3.774,8.516,8.446c0.039,4.695-3.75,8.547-8.445,8.587
	C41.503,48.188,41.479,48.188,41.456,48.188z M41.417,35.155c-2.49,0.021-4.499,2.064-4.479,4.555
	c0.021,2.478,2.043,4.479,4.517,4.479c0.013,0,0.025,0,0.038,0c2.49-0.021,4.499-2.063,4.478-4.554
	c-0.021-2.478-2.043-4.479-4.517-4.479C41.442,35.155,41.43,35.155,41.417,35.155L41.417,35.155z"/>
</svg>